<svg xmlns="http://www.w3.org/2000/svg" viewBox="0 0 900 600" width="100%" height="100%">
  <rect width="900" height="200" fill="#FF9933"/>
  <rect y="200" width="900" height="200" fill="#FFFFFF"/>
  <rect y="400" width="900" height="200" fill="#138808"/>
  <g transform="translate(450, 300)">
    <circle r="92" fill="none" stroke="#000080" stroke-width="4"/>
    <circle r="16" fill="#000080"/>
    <g stroke="#000080" stroke-width="2">
      <line x1="0" y1="-92" x2="0" y2="92" />
      <line x1="0" y1="-92" x2="0" y2="92" transform="rotate(15)"/>
      <line x1="0" y1="-92" x2="0" y2="92" transform="rotate(30)"/>
      <line x1="0" y1="-92" x2="0" y2="92" transform="rotate(45)"/>
      <line x1="0" y1="-92" x2="0" y2="92" transform="rotate(60)"/>
      <line x1="0" y1="-92" x2="0" y2="92" transform="rotate(75)"/>
      <line x1="0" y1="-92" x2="0" y2="92" transform="rotate(90)"/>
      <line x1="0" y1="-92" x2="0" y2="92" transform="rotate(105)"/>
      <line x1="0" y1="-92" x2="0" y2="92" transform="rotate(120)"/>
      <line x1="0" y1="-92" x2="0" y2="92" transform="rotate(135)"/>
      <line x1="0" y1="-92" x2="0" y2="92" transform="rotate(150)"/>
      <line x1="0" y1="-92" x2="0" y2="92" transform="rotate(165)"/>
    </g>
  </g>
</svg>
